:FULLY-SPECIFIED
:FORCE-ALL-JOINTS-BE-3DOF
:DEGREES
1223
root -0.420037 14.9384 -14.7371 4.10222 4.26467 -4.05661
lfemur -50.4396 7.49921 -19.8115
ltibia 75.8054 -0 0
lfoot -16.5914 11.2052 -0.509171
ltoes -30.2381 0 0
rfemur -28.0528 -3.5464 23.8294
rtibia 56.4741 -0 0
rfoot -20.4437 -18.4943 3.7062
rtoes -9.42665 0 0
lowerback 14.5897 1.79974 -0.803875
upperback -2.66169 2.68535 3.55411
thorax -11.2398 1.44802 3.6582
lowerneck -4.16981 -4.47283 -8.55789
upperneck 4.35259 -5.75183 5.8869
head 2.55023 -2.86092 3.13991
lclavicle -2.23629e-15 -8.07963e-15 -1.08632e-30
lhumerus 31.4957 -33.3683 89.0802
lradius 97.5697 -0 0
lwrist 50.0672 0 0
lhand -37.0092 55.3826 -0.386841
lfingers 7.12502 -0 0
lthumb -10.885 -49.0851 3.29802
rclavicle -2.23629e-15 -8.07963e-15 -1.08632e-30
rhumerus -0.823623 38.5082 -75.0407
rradius 112.859 -0 0
rwrist -33.9749 0 0
rhand -8.36743 -22.0455 -0.339678
rfingers 7.12502 -0 0
rthumb 17.5382 -51.0524 -0.253843
1224
root -0.430249 14.9374 -14.6117 4.18324 4.08595 -4.13364
lfemur -50.8384 7.55053 -19.8303
ltibia 75.9497 -0 0
lfoot -16.4329 11.0802 -0.498589
ltoes -30.3346 0 0
rfemur -27.7982 -3.56272 24.0384
rtibia 56.6677 -0 0
rfoot -20.9551 -18.7745 3.62742
rtoes -9.65053 0 0
lowerback 14.6025 1.81821 -0.725419
upperback -2.68182 2.72592 3.56317
thorax -11.2724 1.46345 3.61432
lowerneck -4.19945 -4.44551 -8.54087
upperneck 4.31252 -5.71228 5.87691
head 2.54076 -2.84046 3.13811
lclavicle -2.83575e-15 -8.15017e-15 -1.06381e-30
lhumerus 31.8531 -33.035 89.0768
lradius 97.4161 -0 0
lwrist 50.2606 0 0
lhand -37.0987 55.5507 -0.378804
lfingers 7.12502 -0 0
lthumb -10.9795 -50.3775 3.22027
rclavicle -2.83575e-15 -8.15017e-15 -1.06381e-30
rhumerus -1.00315 38.6092 -75.1311
rradius 112.962 -0 0
rwrist -34.2198 0 0
rhand -8.52547 -21.9619 -0.332623
rfingers 7.12502 -0 0
rthumb 17.3866 -50.9873 -0.248573
1225
root -0.440461 14.9363 -14.4863 4.26447 3.90734 -4.2109
lfemur -51.2374 7.60173 -19.8495
ltibia 76.0941 -0 0
lfoot -16.2744 10.9553 -0.487662
ltoes -30.431 0 0
rfemur -27.5437 -3.57996 24.2472
rtibia 56.8612 -0 0
rfoot -21.466 -19.0539 3.54615
rtoes -9.8744 0 0
lowerback 14.6153 1.83667 -0.646959
upperback -2.70194 2.7665 3.57222
thorax -11.3051 1.47886 3.57044
lowerneck -4.22909 -4.41818 -8.52388
upperneck 4.27245 -5.67273 5.86689
head 2.53129 -2.82 3.13631
lclavicle -3.43521e-15 -8.22071e-15 -1.04057e-30
lhumerus 32.2091 -32.7016 89.0758
lradius 97.2625 -0 0
lwrist 50.454 0 0
lhand -37.1882 55.7189 -0.370505
lfingers 7.12502 -0 0
lthumb -11.0722 -51.6696 3.1404
rclavicle -3.43521e-15 -8.22071e-15 -1.04057e-30
rhumerus -1.18314 38.7099 -75.222
rradius 113.064 -0 0
rwrist -34.4648 0 0
rhand -8.6835 -21.8783 -0.325338
rfingers 7.12502 -0 0
rthumb 17.235 -50.9221 -0.243131
1226
root -0.450672 14.9353 -14.3609 4.34593 3.72883 -4.2884
lfemur -51.6364 7.6528 -19.869
ltibia 76.2384 -0 0
lfoot -16.116 10.8305 -0.47639
ltoes -30.5274 0 0
rfemur -27.2892 -3.59813 24.4561
rtibia 57.0547 -0 0
rfoot -21.9766 -19.3326 3.4624
rtoes -10.0983 0 0
lowerback 14.6281 1.8551 -0.568494
upperback -2.72206 2.80707 3.58125
thorax -11.3377 1.49425 3.52655
lowerneck -4.25871 -4.39084 -8.5069
upperneck 4.23238 -5.63319 5.85684
head 2.52183 -2.79953 3.13451
lclavicle -4.03467e-15 -8.29124e-15 -1.01658e-30
lhumerus 32.5639 -32.3683 89.0774
lradius 97.109 -0 0
lwrist 50.6475 0 0
lhand -37.2776 55.887 -0.361943
lfingers 7.12502 -0 0
lthumb -11.163 -52.9616 3.05848
rclavicle -4.03467e-15 -8.29124e-15 -1.01658e-30
rhumerus -1.36358 38.8104 -75.3135
rradius 113.167 -0 0
rwrist -34.7098 0 0
rhand -8.84152 -21.7947 -0.317822
rfingers 7.12502 -0 0
rthumb 17.0834 -50.857 -0.237516
1227
root -0.460884 14.9343 -14.2355 4.42762 3.55044 -4.36614
lfemur -52.0355 7.70372 -19.8889
ltibia 76.3827 -0 0
lfoot -15.9575 10.7056 -0.464772
ltoes -30.6239 0 0
rfemur -27.0348 -3.61722 24.6648
rtibia 57.2482 -0 0
rfoot -22.4866 -19.6105 3.37617
rtoes -10.3222 0 0
lowerback 14.641 1.87352 -0.490024
upperback -2.74217 2.84765 3.59027
thorax -11.3704 1.5096 3.48265
lowerneck -4.28833 -4.36349 -8.48993
upperneck 4.1923 -5.59365 5.84677
head 2.51236 -2.77907 3.1327
lclavicle -4.63413e-15 -8.36178e-15 -9.9186e-31
lhumerus 32.9173 -32.035 89.0813
lradius 96.9554 -0 0
lwrist 50.8409 0 0
lhand -37.367 56.0552 -0.353119
lfingers 7.12502 -0 0
lthumb -11.252 -54.2533 2.97453
rclavicle -4.63413e-15 -8.36178e-15 -9.9186e-31
rhumerus -1.54449 38.9107 -75.4055
rradius 113.27 -0 0
rwrist -34.9547 0 0
rhand -8.99953 -21.7112 -0.310076
rfingers 7.12502 -0 0
rthumb 16.9318 -50.792 -0.231729
1228
root -0.471095 14.9333 -14.1101 4.50953 3.37215 -4.44412
lfemur -52.4346 7.75451 -19.9091
ltibia 76.527 -0 0
lfoot -15.7991 10.5808 -0.452809
ltoes -30.7203 0 0
rfemur -26.7804 -3.63724 24.8735
rtibia 57.4417 -0 0
rfoot -22.9962 -19.8876 3.28747
rtoes -10.546 0 0
lowerback 14.6539 1.89193 -0.411548
upperback -2.76227 2.88824 3.59928
thorax -11.4031 1.52494 3.43873
lowerneck -4.31794 -4.33614 -8.47298
upperneck 4.15222 -5.55413 5.83667
head 2.50289 -2.75861 3.13089
lclavicle -5.23359e-15 -8.43232e-15 -9.66399e-31
lhumerus 33.2695 -31.7017 89.0877
lradius 96.8019 -0 0
lwrist 51.0344 0 0
lhand -37.4563 56.2233 -0.344033
lfingers 7.12502 -0 0
lthumb -11.3391 -55.5448 2.88859
rclavicle -5.23359e-15 -8.43232e-15 -9.66399e-31
rhumerus -1.72586 39.0107 -75.4981
rradius 113.372 -0 0
rwrist -35.1997 0 0
rhand -9.15753 -21.6277 -0.3021
rfingers 7.12502 -0 0
rthumb 16.7802 -50.7269 -0.22577
1229
root -0.481307 14.9322 -13.9847 4.59168 3.19398 -4.52234
lfemur -52.8338 7.80516 -19.9297
ltibia 76.6714 -0 0
lfoot -15.6408 10.456 -0.440501
ltoes -30.8167 0 0
rfemur -26.5261 -3.65818 25.082
rtibia 57.6352 -0 0
rfoot -23.5053 -20.1638 3.19633
rtoes -10.7699 0 0
lowerback 14.6668 1.91031 -0.333068
upperback -2.78237 2.92882 3.60827
thorax -11.4358 1.54025 3.39481
lowerneck -4.34754 -4.30877 -8.45604
upperneck 4.11213 -5.51461 5.82654
head 2.49342 -2.73815 3.12908
lclavicle -5.83305e-15 -8.50285e-15 -9.402e-31
lhumerus 33.6205 -31.3684 89.0964
lradius 96.6483 -0 0
lwrist 51.2278 0 0
lhand -37.5457 56.3914 -0.334684
lfingers 7.12502 -0 0
lthumb -11.4241 -56.836 2.80072
rclavicle -5.83305e-15 -8.50285e-15 -9.402e-31
rhumerus -1.90769 39.1106 -75.5912
rradius 113.475 -0 0
rwrist -35.4447 0 0
rhand -9.31552 -21.5442 -0.293893
rfingers 7.12502 -0 0
rthumb 16.6286 -50.6618 -0.219638
1230
root -0.491518 14.9312 -13.8592 4.67405 3.01592 -4.60081
lfemur -53.2331 7.85567 -19.9507
ltibia 76.8157 -0 0
lfoot -15.4824 10.3313 -0.427848
ltoes -30.9132 0 0
rfemur -26.2719 -3.68004 25.2905
rtibia 57.8287 -0 0
rfoot -24.0139 -20.4392 3.10273
rtoes -10.9938 0 0
lowerback 14.6797 1.92868 -0.254583
upperback -2.80246 2.96941 3.61725
thorax -11.4686 1.55553 3.35089
lowerneck -4.37713 -4.2814 -8.43912
upperneck 4.07204 -5.47509 5.81638
head 2.48395 -2.71769 3.12726
lclavicle -6.43251e-15 -8.57339e-15 -9.13264e-31
lhumerus 33.9703 -31.0352 89.1075
lradius 96.4948 -0 0
lwrist 51.4213 0 0
lhand -37.635 56.5595 -0.325073
lfingers 7.12502 -0 0
lthumb -11.5072 -58.127 2.71096
rclavicle -6.43251e-15 -8.57339e-15 -9.13264e-31
rhumerus -2.08999 39.2102 -75.6848
rradius 113.577 -0 0
rwrist -35.6896 0 0
rhand -9.47349 -21.4607 -0.285456
rfingers 7.12502 -0 0
rthumb 16.477 -50.5968 -0.213335
1231
root -0.50173 14.9302 -13.7338 4.75665 2.83797 -4.67952
lfemur -53.6324 7.90602 -19.972
ltibia 76.96 -0 0
lfoot -15.3241 10.2065 -0.414851
ltoes -31.0096 0 0
rfemur -26.0177 -3.70283 25.4989
rtibia 58.0222 -0 0
rfoot -24.522 -20.7137 3.0067
rtoes -11.2177 0 0
lowerback 14.6927 1.94703 -0.176093
upperback -2.82255 3.01001 3.62621
thorax -11.5013 1.57079 3.30695
lowerneck -4.40671 -4.25402 -8.42221
upperneck 4.03194 -5.43559 5.8062
head 2.47448 -2.69723 3.12544
lclavicle -7.03197e-15 -8.64393e-15 -8.85589e-31
lhumerus 34.319 -30.7021 89.121
lradius 96.3412 -0 0
lwrist 51.6147 0 0
lhand -37.7243 56.7275 -0.315201
lfingers 7.12502 -0 0
lthumb -11.5882 -59.4178 2.61935
rclavicle -7.03197e-15 -8.64393e-15 -8.85589e-31
rhumerus -2.27276 39.3095 -75.779
rradius 113.68 -0 0
rwrist -35.9346 0 0
rhand -9.63145 -21.3773 -0.276789
rfingers 7.12502 -0 0
rthumb 16.3254 -50.5318 -0.206859
1232
root -0.511942 14.9292 -13.6084 4.83949 2.66014 -4.75847
lfemur -54.0318 7.95623 -19.9936
ltibia 77.1044 -0 0
lfoot -15.1659 10.0819 -0.401509
ltoes -31.106 0 0
rfemur -25.7637 -3.72654 25.7072
rtibia 58.2157 -0 0
rfoot -25.0296 -20.9874 2.90824
rtoes -11.4416 0 0
lowerback 14.7057 1.96536 -0.0975976
upperback -2.84263 3.0506 3.63516
thorax -11.5341 1.58602 3.263
lowerneck -4.43628 -4.22663 -8.40532
upperneck 3.99184 -5.39609 5.79599
head 2.46501 -2.67677 3.12362
lclavicle -7.63143e-15 -8.71446e-15 -8.57176e-31
lhumerus 34.6665 -30.369 89.1367
lradius 96.1876 -0 0
lwrist 51.8081 0 0
lhand -37.8135 56.8956 -0.305066
lfingers 7.12502 -0 0
lthumb -11.6672 -60.7084 2.52594
rclavicle -7.63143e-15 -8.71446e-15 -8.57176e-31
rhumerus -2.456 39.4087 -75.8737
rradius 113.782 -0 0
rwrist -36.1796 0 0
rhand -9.7894 -21.2938 -0.267892
rfingers 7.12502 -0 0
rthumb 16.1739 -50.4668 -0.200212
1233
root -0.522153 14.9282 -13.483 4.92256 2.48242 -4.83767
lfemur -54.4313 8.00629 -20.0157
ltibia 77.2487 -0 0
lfoot -15.0076 9.95724 -0.387823
ltoes -31.2024 0 0
rfemur -25.5097 -3.75117 25.9154
rtibia 58.4093 -0 0
rfoot -25.5367 -21.2601 2.80737
rtoes -11.6654 0 0
lowerback 14.7187 1.98367 -0.0190974
upperback -2.86271 3.0912 3.64409
thorax -11.5668 1.60123 3.21904
lowerneck -4.46584 -4.19923 -8.38844
upperneck 3.95174 -5.3566 5.78576
head 2.45554 -2.65631 3.12179
lclavicle -8.23089e-15 -8.785e-15 -8.28026e-31
lhumerus 35.013 -30.036 89.1547
lradius 96.0341 -0 0
lwrist 52.0016 0 0
lhand -37.9027 57.0636 -0.29467
lfingers 7.12502 -0 0
lthumb -11.7439 -61.9987 2.43078
rclavicle -8.23089e-15 -8.785e-15 -8.28026e-31
rhumerus -2.63972 39.5076 -75.969
rradius 113.885 -0 0
rwrist -36.4245 0 0
rhand -9.94733 -21.2104 -0.258765
rfingers 7.12502 -0 0
rthumb 16.0223 -50.4018 -0.193393
1234
root -0.532365 14.9271 -13.3576 5.00586 2.30482 -4.91712
lfemur -54.8308 8.0562 -20.038
ltibia 77.393 -0 0
lfoot -14.8494 9.83264 -0.373792
ltoes -31.2989 0 0
rfemur -25.2558 -3.77673 26.1235
rtibia 58.6028 -0 0
rfoot -26.0433 -21.5319 2.70409
rtoes -11.8893 0 0
lowerback 14.7317 2.00197 0.0594079
upperback -2.88278 3.1318 3.65302
thorax -11.5996 1.61641 3.17508
lowerneck -4.49539 -4.17182 -8.37158
upperneck 3.91163 -5.31711 5.7755
head 2.44607 -2.63585 3.11996
lclavicle -8.83035e-15 -8.85553e-15 -7.98137e-31
lhumerus 35.3585 -29.7032 89.1749
lradius 95.8805 -0 0
lwrist 52.195 0 0
lhand -37.9919 57.2317 -0.284013
lfingers 7.12502 -0 0
lthumb -11.8186 -63.2888 2.33391
rclavicle -8.83035e-15 -8.85553e-15 -7.98137e-31
rhumerus -2.8239 39.6062 -76.0648
rradius 113.988 -0 0
rwrist -36.6695 0 0
rhand -10.1053 -21.1271 -0.249408
rfingers 7.12502 -0 0
rthumb 15.8707 -50.3368 -0.186401
